<mxfile host="app.diagrams.net" agent="Mozilla/5.0 (Windows NT 10.0; Win64; x64) AppleWebKit/537.36 (KHTML, like Gecko) Chrome/131.0.0.0 Safari/537.36" version="24.9.3">
  <diagram name="1 oldal" id="A7XQXGwX58UxebjjYQUv">
    <mxGraphModel dx="2473" dy="752" grid="1" gridSize="10" guides="1" tooltips="1" connect="1" arrows="1" fold="1" page="1" pageScale="1" pageWidth="827" pageHeight="1169" math="0" shadow="0">
      <root>
        <mxCell id="0" />
        <mxCell id="1" parent="0" />
        <mxCell id="h7xfLtafOI-z9VBckkIk-1" value="Játékos" style="rounded=1;whiteSpace=wrap;html=1;fillColor=#dae8fc;strokeColor=#6c8ebf;" parent="1" vertex="1">
          <mxGeometry x="-20" y="430" width="120" height="60" as="geometry" />
        </mxCell>
        <mxCell id="h7xfLtafOI-z9VBckkIk-2" value="Futballklub" style="rounded=1;whiteSpace=wrap;html=1;fillColor=#dae8fc;strokeColor=#6c8ebf;" parent="1" vertex="1">
          <mxGeometry x="720" y="430" width="120" height="60" as="geometry" />
        </mxCell>
        <mxCell id="h7xfLtafOI-z9VBckkIk-3" value="Mérkőzés" style="rounded=1;whiteSpace=wrap;html=1;fillColor=#dae8fc;strokeColor=#6c8ebf;" parent="1" vertex="1">
          <mxGeometry x="360" y="430" width="120" height="60" as="geometry" />
        </mxCell>
        <mxCell id="h7xfLtafOI-z9VBckkIk-4" value="Edző" style="rounded=1;whiteSpace=wrap;html=1;fillColor=#dae8fc;strokeColor=#6c8ebf;" parent="1" vertex="1">
          <mxGeometry x="1150" y="430" width="120" height="60" as="geometry" />
        </mxCell>
        <mxCell id="h7xfLtafOI-z9VBckkIk-6" value="Bajnokság" style="rounded=1;whiteSpace=wrap;html=1;fillColor=#dae8fc;strokeColor=#6c8ebf;" parent="1" vertex="1">
          <mxGeometry x="360" y="140" width="120" height="60" as="geometry" />
        </mxCell>
        <mxCell id="h7xfLtafOI-z9VBckkIk-10" value="" style="endArrow=classic;html=1;rounded=0;entryX=1;entryY=0.5;entryDx=0;entryDy=0;exitX=0;exitY=0.5;exitDx=0;exitDy=0;" parent="1" source="h7xfLtafOI-z9VBckkIk-11" target="h7xfLtafOI-z9VBckkIk-3" edge="1">
          <mxGeometry width="50" height="50" relative="1" as="geometry">
            <mxPoint x="740" y="460" as="sourcePoint" />
            <mxPoint x="740" y="390" as="targetPoint" />
          </mxGeometry>
        </mxCell>
        <mxCell id="h7xfLtafOI-z9VBckkIk-11" value="Tartozik" style="rhombus;whiteSpace=wrap;html=1;fillColor=#d5e8d4;strokeColor=#82b366;" parent="1" vertex="1">
          <mxGeometry x="560" y="420" width="80" height="80" as="geometry" />
        </mxCell>
        <mxCell id="h7xfLtafOI-z9VBckkIk-12" value="" style="endArrow=doubleBlock;html=1;rounded=0;entryX=0;entryY=0.5;entryDx=0;entryDy=0;exitX=1;exitY=0.5;exitDx=0;exitDy=0;endFill=1;" parent="1" source="h7xfLtafOI-z9VBckkIk-11" target="h7xfLtafOI-z9VBckkIk-2" edge="1">
          <mxGeometry width="50" height="50" relative="1" as="geometry">
            <mxPoint x="620" y="690" as="sourcePoint" />
            <mxPoint x="670" y="640" as="targetPoint" />
          </mxGeometry>
        </mxCell>
        <mxCell id="E-FDAPXuGl_Y7a5FERmr-3" value="" style="endArrow=classic;html=1;rounded=0;entryX=0;entryY=0.5;entryDx=0;entryDy=0;" parent="1" source="h7xfLtafOI-z9VBckkIk-8" target="h7xfLtafOI-z9VBckkIk-4" edge="1">
          <mxGeometry width="50" height="50" relative="1" as="geometry">
            <mxPoint x="1000" y="460" as="sourcePoint" />
            <mxPoint x="1050" y="410" as="targetPoint" />
          </mxGeometry>
        </mxCell>
        <mxCell id="E-FDAPXuGl_Y7a5FERmr-4" value="" style="endArrow=none;html=1;rounded=0;entryX=0;entryY=0.5;entryDx=0;entryDy=0;endFill=0;startArrow=classic;startFill=1;" parent="1" target="h7xfLtafOI-z9VBckkIk-8" edge="1">
          <mxGeometry width="50" height="50" relative="1" as="geometry">
            <mxPoint x="840" y="459.5" as="sourcePoint" />
            <mxPoint x="920" y="459.5" as="targetPoint" />
          </mxGeometry>
        </mxCell>
        <mxCell id="E-FDAPXuGl_Y7a5FERmr-5" value="Játszik" style="rhombus;whiteSpace=wrap;html=1;fillColor=#d5e8d4;strokeColor=#82b366;" parent="1" vertex="1">
          <mxGeometry x="200" y="420" width="80" height="80" as="geometry" />
        </mxCell>
        <mxCell id="E-FDAPXuGl_Y7a5FERmr-6" value="" style="endArrow=doubleBlock;html=1;rounded=0;entryX=1;entryY=0.5;entryDx=0;entryDy=0;endFill=1;exitX=0;exitY=0.5;exitDx=0;exitDy=0;" parent="1" source="E-FDAPXuGl_Y7a5FERmr-5" target="h7xfLtafOI-z9VBckkIk-1" edge="1">
          <mxGeometry width="50" height="50" relative="1" as="geometry">
            <mxPoint x="780" y="280" as="sourcePoint" />
            <mxPoint x="830" y="240" as="targetPoint" />
          </mxGeometry>
        </mxCell>
        <mxCell id="E-FDAPXuGl_Y7a5FERmr-7" value="" style="endArrow=classic;html=1;rounded=0;entryX=0;entryY=0.5;entryDx=0;entryDy=0;exitX=1;exitY=0.5;exitDx=0;exitDy=0;" parent="1" source="E-FDAPXuGl_Y7a5FERmr-5" target="h7xfLtafOI-z9VBckkIk-3" edge="1">
          <mxGeometry width="50" height="50" relative="1" as="geometry">
            <mxPoint x="359" y="400" as="sourcePoint" />
            <mxPoint x="359" y="470" as="targetPoint" />
          </mxGeometry>
        </mxCell>
        <mxCell id="E-FDAPXuGl_Y7a5FERmr-8" value="" style="endArrow=doubleBlock;html=1;rounded=0;entryX=1;entryY=0.5;entryDx=0;entryDy=0;endFill=1;exitX=0;exitY=0.5;exitDx=0;exitDy=0;" parent="1" source="E-FDAPXuGl_Y7a5FERmr-9" target="h7xfLtafOI-z9VBckkIk-6" edge="1">
          <mxGeometry width="50" height="50" relative="1" as="geometry">
            <mxPoint x="630" y="190" as="sourcePoint" />
            <mxPoint x="630" y="110" as="targetPoint" />
          </mxGeometry>
        </mxCell>
        <mxCell id="E-FDAPXuGl_Y7a5FERmr-9" value="Részvétel" style="rhombus;whiteSpace=wrap;html=1;fillColor=#d5e8d4;strokeColor=#82b366;" parent="1" vertex="1">
          <mxGeometry x="740" y="130" width="80" height="80" as="geometry" />
        </mxCell>
        <mxCell id="E-FDAPXuGl_Y7a5FERmr-10" value="" style="endArrow=doubleBlock;html=1;rounded=0;entryX=0.5;entryY=0;entryDx=0;entryDy=0;exitX=1;exitY=0.5;exitDx=0;exitDy=0;endFill=1;" parent="1" target="h7xfLtafOI-z9VBckkIk-2" edge="1">
          <mxGeometry width="50" height="50" relative="1" as="geometry">
            <mxPoint x="779.5" y="210" as="sourcePoint" />
            <mxPoint x="779.5" y="280" as="targetPoint" />
          </mxGeometry>
        </mxCell>
        <mxCell id="E-FDAPXuGl_Y7a5FERmr-13" value="Szerepel" style="rhombus;whiteSpace=wrap;html=1;fillColor=#d5e8d4;strokeColor=#82b366;" parent="1" vertex="1">
          <mxGeometry x="380" y="280" width="80" height="80" as="geometry" />
        </mxCell>
        <mxCell id="E-FDAPXuGl_Y7a5FERmr-14" value="" style="endArrow=classic;html=1;rounded=0;entryX=0.5;entryY=1;entryDx=0;entryDy=0;exitX=0.5;exitY=0;exitDx=0;exitDy=0;" parent="1" source="E-FDAPXuGl_Y7a5FERmr-13" target="h7xfLtafOI-z9VBckkIk-6" edge="1">
          <mxGeometry width="50" height="50" relative="1" as="geometry">
            <mxPoint x="460" y="750" as="sourcePoint" />
            <mxPoint x="510" y="700" as="targetPoint" />
          </mxGeometry>
        </mxCell>
        <mxCell id="E-FDAPXuGl_Y7a5FERmr-15" value="" style="endArrow=none;html=1;rounded=0;exitX=0.5;exitY=1;exitDx=0;exitDy=0;entryX=0.5;entryY=0;entryDx=0;entryDy=0;" parent="1" source="h7xfLtafOI-z9VBckkIk-4" target="E-FDAPXuGl_Y7a5FERmr-16" edge="1">
          <mxGeometry width="50" height="50" relative="1" as="geometry">
            <mxPoint x="1090" y="540" as="sourcePoint" />
            <mxPoint x="1140" y="490" as="targetPoint" />
          </mxGeometry>
        </mxCell>
        <mxCell id="E-FDAPXuGl_Y7a5FERmr-16" value="edzoID" style="ellipse;whiteSpace=wrap;html=1;align=center;fontStyle=4;" parent="1" vertex="1">
          <mxGeometry x="1030" y="510" width="100" height="40" as="geometry" />
        </mxCell>
        <mxCell id="E-FDAPXuGl_Y7a5FERmr-17" value="dátum" style="ellipse;whiteSpace=wrap;html=1;align=center;" parent="1" vertex="1">
          <mxGeometry x="1130" y="510" width="100" height="40" as="geometry" />
        </mxCell>
        <mxCell id="E-FDAPXuGl_Y7a5FERmr-19" value="" style="endArrow=none;html=1;rounded=0;exitX=0.5;exitY=0;exitDx=0;exitDy=0;entryX=0.5;entryY=1;entryDx=0;entryDy=0;" parent="1" source="E-FDAPXuGl_Y7a5FERmr-17" target="h7xfLtafOI-z9VBckkIk-4" edge="1">
          <mxGeometry width="50" height="50" relative="1" as="geometry">
            <mxPoint x="1150" y="510" as="sourcePoint" />
            <mxPoint x="1140" y="490" as="targetPoint" />
          </mxGeometry>
        </mxCell>
        <mxCell id="E-FDAPXuGl_Y7a5FERmr-20" value="név" style="ellipse;whiteSpace=wrap;html=1;align=center;" parent="1" vertex="1">
          <mxGeometry x="1230" y="510" width="100" height="40" as="geometry" />
        </mxCell>
        <mxCell id="E-FDAPXuGl_Y7a5FERmr-21" value="" style="endArrow=none;html=1;rounded=0;entryX=0.5;entryY=1;entryDx=0;entryDy=0;exitX=0.5;exitY=0;exitDx=0;exitDy=0;" parent="1" source="E-FDAPXuGl_Y7a5FERmr-20" target="h7xfLtafOI-z9VBckkIk-4" edge="1">
          <mxGeometry width="50" height="50" relative="1" as="geometry">
            <mxPoint x="1230" y="510" as="sourcePoint" />
            <mxPoint x="1280" y="460" as="targetPoint" />
          </mxGeometry>
        </mxCell>
        <mxCell id="E-FDAPXuGl_Y7a5FERmr-22" value="keresztnév" style="ellipse;whiteSpace=wrap;html=1;align=center;" parent="1" vertex="1">
          <mxGeometry x="1170" y="570" width="100" height="40" as="geometry" />
        </mxCell>
        <mxCell id="E-FDAPXuGl_Y7a5FERmr-23" value="vezetéknév" style="ellipse;whiteSpace=wrap;html=1;align=center;" parent="1" vertex="1">
          <mxGeometry x="1270" y="570" width="100" height="40" as="geometry" />
        </mxCell>
        <mxCell id="E-FDAPXuGl_Y7a5FERmr-25" value="" style="endArrow=none;html=1;rounded=0;exitX=0.5;exitY=0;exitDx=0;exitDy=0;entryX=0.5;entryY=1;entryDx=0;entryDy=0;" parent="1" source="E-FDAPXuGl_Y7a5FERmr-22" target="E-FDAPXuGl_Y7a5FERmr-20" edge="1">
          <mxGeometry width="50" height="50" relative="1" as="geometry">
            <mxPoint x="1180" y="600" as="sourcePoint" />
            <mxPoint x="1230" y="550" as="targetPoint" />
          </mxGeometry>
        </mxCell>
        <mxCell id="E-FDAPXuGl_Y7a5FERmr-26" value="" style="endArrow=none;html=1;rounded=0;exitX=0.5;exitY=1;exitDx=0;exitDy=0;entryX=0.5;entryY=0;entryDx=0;entryDy=0;" parent="1" source="E-FDAPXuGl_Y7a5FERmr-20" target="E-FDAPXuGl_Y7a5FERmr-23" edge="1">
          <mxGeometry width="50" height="50" relative="1" as="geometry">
            <mxPoint x="1201" y="580" as="sourcePoint" />
            <mxPoint x="1240" y="560" as="targetPoint" />
          </mxGeometry>
        </mxCell>
        <mxCell id="E-FDAPXuGl_Y7a5FERmr-27" value="kor" style="ellipse;whiteSpace=wrap;html=1;align=center;" parent="1" vertex="1">
          <mxGeometry x="1330" y="510" width="100" height="40" as="geometry" />
        </mxCell>
        <mxCell id="E-FDAPXuGl_Y7a5FERmr-28" value="" style="endArrow=none;html=1;rounded=0;entryX=0.5;entryY=1;entryDx=0;entryDy=0;exitX=0.5;exitY=0;exitDx=0;exitDy=0;" parent="1" source="E-FDAPXuGl_Y7a5FERmr-27" target="h7xfLtafOI-z9VBckkIk-4" edge="1">
          <mxGeometry width="50" height="50" relative="1" as="geometry">
            <mxPoint x="1330" y="510" as="sourcePoint" />
            <mxPoint x="1241" y="490" as="targetPoint" />
          </mxGeometry>
        </mxCell>
        <mxCell id="E-FDAPXuGl_Y7a5FERmr-30" value="" style="endArrow=doubleBlock;html=1;rounded=0;entryX=0.5;entryY=0;entryDx=0;entryDy=0;endFill=1;" parent="1" target="h7xfLtafOI-z9VBckkIk-3" edge="1">
          <mxGeometry width="50" height="50" relative="1" as="geometry">
            <mxPoint x="420" y="360" as="sourcePoint" />
            <mxPoint x="470" y="310" as="targetPoint" />
          </mxGeometry>
        </mxCell>
        <mxCell id="E-FDAPXuGl_Y7a5FERmr-31" value="" style="endArrow=classic;html=1;rounded=0;entryX=0;entryY=0.5;entryDx=0;entryDy=0;" parent="1" target="h7xfLtafOI-z9VBckkIk-8" edge="1">
          <mxGeometry width="50" height="50" relative="1" as="geometry">
            <mxPoint x="1000" y="460" as="sourcePoint" />
            <mxPoint x="1150" y="460" as="targetPoint" />
          </mxGeometry>
        </mxCell>
        <mxCell id="h7xfLtafOI-z9VBckkIk-8" value="Dolgozik" style="rhombus;whiteSpace=wrap;html=1;fillColor=#d5e8d4;strokeColor=#82b366;" parent="1" vertex="1">
          <mxGeometry x="980" y="420" width="80" height="80" as="geometry" />
        </mxCell>
        <mxCell id="E-FDAPXuGl_Y7a5FERmr-32" value="" style="endArrow=none;html=1;rounded=0;exitX=0.5;exitY=1;exitDx=0;exitDy=0;entryX=0.5;entryY=0;entryDx=0;entryDy=0;" parent="1" source="h7xfLtafOI-z9VBckkIk-2" target="E-FDAPXuGl_Y7a5FERmr-33" edge="1">
          <mxGeometry width="50" height="50" relative="1" as="geometry">
            <mxPoint x="700" y="520" as="sourcePoint" />
            <mxPoint x="780" y="490" as="targetPoint" />
          </mxGeometry>
        </mxCell>
        <mxCell id="E-FDAPXuGl_Y7a5FERmr-33" value="&lt;u&gt;klubID&lt;/u&gt;" style="ellipse;whiteSpace=wrap;html=1;align=center;" parent="1" vertex="1">
          <mxGeometry x="590" y="520" width="100" height="40" as="geometry" />
        </mxCell>
        <mxCell id="E-FDAPXuGl_Y7a5FERmr-34" value="név" style="ellipse;whiteSpace=wrap;html=1;align=center;" parent="1" vertex="1">
          <mxGeometry x="690" y="520" width="100" height="40" as="geometry" />
        </mxCell>
        <mxCell id="E-FDAPXuGl_Y7a5FERmr-35" value="" style="endArrow=none;html=1;rounded=0;entryX=0.5;entryY=1;entryDx=0;entryDy=0;exitX=0.5;exitY=0;exitDx=0;exitDy=0;" parent="1" source="E-FDAPXuGl_Y7a5FERmr-34" target="h7xfLtafOI-z9VBckkIk-2" edge="1">
          <mxGeometry width="50" height="50" relative="1" as="geometry">
            <mxPoint x="800" y="560" as="sourcePoint" />
            <mxPoint x="850" y="510" as="targetPoint" />
          </mxGeometry>
        </mxCell>
        <mxCell id="E-FDAPXuGl_Y7a5FERmr-36" value="város" style="ellipse;whiteSpace=wrap;html=1;align=center;" parent="1" vertex="1">
          <mxGeometry x="790" y="520" width="100" height="40" as="geometry" />
        </mxCell>
        <mxCell id="E-FDAPXuGl_Y7a5FERmr-37" value="" style="endArrow=none;html=1;rounded=0;entryX=0.5;entryY=1;entryDx=0;entryDy=0;exitX=0.5;exitY=0;exitDx=0;exitDy=0;" parent="1" source="E-FDAPXuGl_Y7a5FERmr-36" target="h7xfLtafOI-z9VBckkIk-2" edge="1">
          <mxGeometry width="50" height="50" relative="1" as="geometry">
            <mxPoint x="840" y="510" as="sourcePoint" />
            <mxPoint x="890" y="460" as="targetPoint" />
          </mxGeometry>
        </mxCell>
        <mxCell id="E-FDAPXuGl_Y7a5FERmr-38" value="ország" style="ellipse;whiteSpace=wrap;html=1;align=center;" parent="1" vertex="1">
          <mxGeometry x="740" y="580" width="100" height="40" as="geometry" />
        </mxCell>
        <mxCell id="E-FDAPXuGl_Y7a5FERmr-39" value="város,kerület" style="ellipse;whiteSpace=wrap;html=1;align=center;" parent="1" vertex="1">
          <mxGeometry x="840" y="580" width="100" height="40" as="geometry" />
        </mxCell>
        <mxCell id="E-FDAPXuGl_Y7a5FERmr-40" value="" style="endArrow=none;html=1;rounded=0;entryX=0.5;entryY=1;entryDx=0;entryDy=0;exitX=0.5;exitY=0;exitDx=0;exitDy=0;" parent="1" source="E-FDAPXuGl_Y7a5FERmr-38" target="E-FDAPXuGl_Y7a5FERmr-36" edge="1">
          <mxGeometry width="50" height="50" relative="1" as="geometry">
            <mxPoint x="720" y="610" as="sourcePoint" />
            <mxPoint x="770" y="560" as="targetPoint" />
          </mxGeometry>
        </mxCell>
        <mxCell id="E-FDAPXuGl_Y7a5FERmr-41" value="" style="endArrow=none;html=1;rounded=0;entryX=0.5;entryY=1;entryDx=0;entryDy=0;exitX=0.5;exitY=0;exitDx=0;exitDy=0;" parent="1" source="E-FDAPXuGl_Y7a5FERmr-39" target="E-FDAPXuGl_Y7a5FERmr-36" edge="1">
          <mxGeometry width="50" height="50" relative="1" as="geometry">
            <mxPoint x="800" y="590" as="sourcePoint" />
            <mxPoint x="850" y="560" as="targetPoint" />
          </mxGeometry>
        </mxCell>
        <mxCell id="E-FDAPXuGl_Y7a5FERmr-42" value="alapitás éve" style="ellipse;whiteSpace=wrap;html=1;align=center;" parent="1" vertex="1">
          <mxGeometry x="890" y="520" width="100" height="40" as="geometry" />
        </mxCell>
        <mxCell id="E-FDAPXuGl_Y7a5FERmr-43" value="" style="endArrow=none;html=1;rounded=0;exitX=0.5;exitY=0;exitDx=0;exitDy=0;entryX=0.5;entryY=1;entryDx=0;entryDy=0;" parent="1" source="E-FDAPXuGl_Y7a5FERmr-42" target="h7xfLtafOI-z9VBckkIk-2" edge="1">
          <mxGeometry width="50" height="50" relative="1" as="geometry">
            <mxPoint x="890" y="520" as="sourcePoint" />
            <mxPoint x="940" y="470" as="targetPoint" />
          </mxGeometry>
        </mxCell>
        <mxCell id="E-FDAPXuGl_Y7a5FERmr-44" value="" style="endArrow=none;html=1;rounded=0;entryX=0.5;entryY=1;entryDx=0;entryDy=0;exitX=0.5;exitY=0;exitDx=0;exitDy=0;" parent="1" source="E-FDAPXuGl_Y7a5FERmr-53" target="h7xfLtafOI-z9VBckkIk-3" edge="1">
          <mxGeometry width="50" height="50" relative="1" as="geometry">
            <mxPoint x="240" y="510" as="sourcePoint" />
            <mxPoint x="390" y="520" as="targetPoint" />
          </mxGeometry>
        </mxCell>
        <mxCell id="E-FDAPXuGl_Y7a5FERmr-48" value="helyszin" style="ellipse;whiteSpace=wrap;html=1;align=center;" parent="1" vertex="1">
          <mxGeometry x="380" y="520" width="80" height="40" as="geometry" />
        </mxCell>
        <mxCell id="E-FDAPXuGl_Y7a5FERmr-50" style="edgeStyle=orthogonalEdgeStyle;rounded=0;orthogonalLoop=1;jettySize=auto;html=1;exitX=0.5;exitY=1;exitDx=0;exitDy=0;" parent="1" edge="1">
          <mxGeometry relative="1" as="geometry">
            <mxPoint x="340" y="550" as="sourcePoint" />
            <mxPoint x="340" y="550" as="targetPoint" />
          </mxGeometry>
        </mxCell>
        <mxCell id="E-FDAPXuGl_Y7a5FERmr-51" value="eredmény" style="ellipse;whiteSpace=wrap;html=1;align=center;" parent="1" vertex="1">
          <mxGeometry x="460" y="520" width="80" height="40" as="geometry" />
        </mxCell>
        <mxCell id="E-FDAPXuGl_Y7a5FERmr-52" value="dátum" style="ellipse;whiteSpace=wrap;html=1;align=center;" parent="1" vertex="1">
          <mxGeometry x="300" y="520" width="80" height="40" as="geometry" />
        </mxCell>
        <mxCell id="E-FDAPXuGl_Y7a5FERmr-53" value="&lt;u&gt;mérkőzésID&lt;/u&gt;" style="ellipse;whiteSpace=wrap;html=1;align=center;" parent="1" vertex="1">
          <mxGeometry x="220" y="520" width="80" height="40" as="geometry" />
        </mxCell>
        <mxCell id="E-FDAPXuGl_Y7a5FERmr-54" value="" style="endArrow=none;html=1;rounded=0;entryX=0.5;entryY=1;entryDx=0;entryDy=0;exitX=0.5;exitY=0;exitDx=0;exitDy=0;" parent="1" source="E-FDAPXuGl_Y7a5FERmr-52" target="h7xfLtafOI-z9VBckkIk-3" edge="1">
          <mxGeometry width="50" height="50" relative="1" as="geometry">
            <mxPoint x="364" y="610" as="sourcePoint" />
            <mxPoint x="414" y="560" as="targetPoint" />
          </mxGeometry>
        </mxCell>
        <mxCell id="E-FDAPXuGl_Y7a5FERmr-55" value="" style="endArrow=none;html=1;rounded=0;entryX=0.5;entryY=1;entryDx=0;entryDy=0;exitX=0.5;exitY=0;exitDx=0;exitDy=0;fontStyle=1" parent="1" source="E-FDAPXuGl_Y7a5FERmr-48" target="h7xfLtafOI-z9VBckkIk-3" edge="1">
          <mxGeometry width="50" height="50" relative="1" as="geometry">
            <mxPoint x="350" y="530" as="sourcePoint" />
            <mxPoint x="430" y="500" as="targetPoint" />
          </mxGeometry>
        </mxCell>
        <mxCell id="E-FDAPXuGl_Y7a5FERmr-56" value="" style="endArrow=none;html=1;rounded=0;entryX=0.5;entryY=1;entryDx=0;entryDy=0;exitX=0.5;exitY=0;exitDx=0;exitDy=0;" parent="1" source="E-FDAPXuGl_Y7a5FERmr-51" target="h7xfLtafOI-z9VBckkIk-3" edge="1">
          <mxGeometry width="50" height="50" relative="1" as="geometry">
            <mxPoint x="430" y="530" as="sourcePoint" />
            <mxPoint x="430" y="500" as="targetPoint" />
          </mxGeometry>
        </mxCell>
        <mxCell id="E-FDAPXuGl_Y7a5FERmr-58" value="" style="endArrow=none;html=1;rounded=0;entryX=0.5;entryY=1;entryDx=0;entryDy=0;exitX=0.5;exitY=0;exitDx=0;exitDy=0;" parent="1" source="E-FDAPXuGl_Y7a5FERmr-60" target="E-FDAPXuGl_Y7a5FERmr-48" edge="1">
          <mxGeometry width="50" height="50" relative="1" as="geometry">
            <mxPoint x="380" y="600" as="sourcePoint" />
            <mxPoint x="390" y="585" as="targetPoint" />
          </mxGeometry>
        </mxCell>
        <mxCell id="E-FDAPXuGl_Y7a5FERmr-60" value="város" style="ellipse;whiteSpace=wrap;html=1;align=center;" parent="1" vertex="1">
          <mxGeometry x="340" y="600" width="80" height="40" as="geometry" />
        </mxCell>
        <mxCell id="E-FDAPXuGl_Y7a5FERmr-61" value="stadionnév" style="ellipse;whiteSpace=wrap;html=1;align=center;" parent="1" vertex="1">
          <mxGeometry x="420" y="600" width="80" height="40" as="geometry" />
        </mxCell>
        <mxCell id="E-FDAPXuGl_Y7a5FERmr-62" value="" style="endArrow=none;html=1;rounded=0;entryX=0.5;entryY=1;entryDx=0;entryDy=0;exitX=0.5;exitY=0;exitDx=0;exitDy=0;" parent="1" source="E-FDAPXuGl_Y7a5FERmr-61" target="E-FDAPXuGl_Y7a5FERmr-48" edge="1">
          <mxGeometry width="50" height="50" relative="1" as="geometry">
            <mxPoint x="480" y="690" as="sourcePoint" />
            <mxPoint x="530" y="640" as="targetPoint" />
          </mxGeometry>
        </mxCell>
        <mxCell id="E-FDAPXuGl_Y7a5FERmr-63" value="" style="endArrow=none;html=1;rounded=0;exitX=0.5;exitY=0;exitDx=0;exitDy=0;entryX=0.5;entryY=1;entryDx=0;entryDy=0;" parent="1" source="E-FDAPXuGl_Y7a5FERmr-71" target="h7xfLtafOI-z9VBckkIk-1" edge="1">
          <mxGeometry width="50" height="50" relative="1" as="geometry">
            <mxPoint x="-150" y="520" as="sourcePoint" />
            <mxPoint x="30" y="490" as="targetPoint" />
          </mxGeometry>
        </mxCell>
        <mxCell id="E-FDAPXuGl_Y7a5FERmr-69" value="kor" style="ellipse;whiteSpace=wrap;html=1;align=center;" parent="1" vertex="1">
          <mxGeometry x="-60" y="520" width="80" height="40" as="geometry" />
        </mxCell>
        <mxCell id="E-FDAPXuGl_Y7a5FERmr-70" value="név" style="ellipse;whiteSpace=wrap;html=1;align=center;" parent="1" vertex="1">
          <mxGeometry x="-140" y="520" width="80" height="40" as="geometry" />
        </mxCell>
        <mxCell id="E-FDAPXuGl_Y7a5FERmr-71" value="&lt;u&gt;játékosID&lt;/u&gt;" style="ellipse;whiteSpace=wrap;html=1;align=center;" parent="1" vertex="1">
          <mxGeometry x="-220" y="520" width="80" height="40" as="geometry" />
        </mxCell>
        <mxCell id="E-FDAPXuGl_Y7a5FERmr-72" value="" style="endArrow=none;html=1;rounded=0;entryX=0.5;entryY=1;entryDx=0;entryDy=0;exitX=0.5;exitY=0;exitDx=0;exitDy=0;" parent="1" source="E-FDAPXuGl_Y7a5FERmr-70" target="h7xfLtafOI-z9VBckkIk-1" edge="1">
          <mxGeometry width="50" height="50" relative="1" as="geometry">
            <mxPoint x="-100" y="590" as="sourcePoint" />
            <mxPoint x="-50" y="540" as="targetPoint" />
          </mxGeometry>
        </mxCell>
        <mxCell id="E-FDAPXuGl_Y7a5FERmr-73" value="" style="endArrow=none;html=1;rounded=0;exitX=0.5;exitY=0;exitDx=0;exitDy=0;entryX=0.5;entryY=1;entryDx=0;entryDy=0;" parent="1" source="E-FDAPXuGl_Y7a5FERmr-69" target="h7xfLtafOI-z9VBckkIk-1" edge="1">
          <mxGeometry width="50" height="50" relative="1" as="geometry">
            <mxPoint x="-10" y="540" as="sourcePoint" />
            <mxPoint x="40" y="490" as="targetPoint" />
          </mxGeometry>
        </mxCell>
        <mxCell id="E-FDAPXuGl_Y7a5FERmr-74" value="" style="endArrow=none;html=1;rounded=0;entryX=0.5;entryY=1;entryDx=0;entryDy=0;exitX=0.5;exitY=0;exitDx=0;exitDy=0;" parent="1" source="E-FDAPXuGl_Y7a5FERmr-77" target="h7xfLtafOI-z9VBckkIk-1" edge="1">
          <mxGeometry width="50" height="50" relative="1" as="geometry">
            <mxPoint x="60" y="520" as="sourcePoint" />
            <mxPoint x="130" y="480" as="targetPoint" />
          </mxGeometry>
        </mxCell>
        <mxCell id="E-FDAPXuGl_Y7a5FERmr-75" value="" style="endArrow=none;html=1;rounded=0;entryX=0.5;entryY=1;entryDx=0;entryDy=0;exitX=0.5;exitY=0;exitDx=0;exitDy=0;" parent="1" source="_7S4jgIZKsvz7IWpcm-z-1" target="h7xfLtafOI-z9VBckkIk-1" edge="1">
          <mxGeometry width="50" height="50" relative="1" as="geometry">
            <mxPoint x="140" y="520" as="sourcePoint" />
            <mxPoint x="180" y="460" as="targetPoint" />
          </mxGeometry>
        </mxCell>
        <mxCell id="E-FDAPXuGl_Y7a5FERmr-77" value="poszt" style="ellipse;shape=doubleEllipse;margin=3;whiteSpace=wrap;html=1;align=center;" parent="1" vertex="1">
          <mxGeometry x="20" y="520" width="80" height="40" as="geometry" />
        </mxCell>
        <mxCell id="E-FDAPXuGl_Y7a5FERmr-78" value="&lt;u&gt;bajnokságID&lt;/u&gt;" style="ellipse;whiteSpace=wrap;html=1;align=center;" parent="1" vertex="1">
          <mxGeometry x="220" y="70" width="100" height="40" as="geometry" />
        </mxCell>
        <mxCell id="E-FDAPXuGl_Y7a5FERmr-79" value="év" style="ellipse;whiteSpace=wrap;html=1;align=center;" parent="1" vertex="1">
          <mxGeometry x="420" y="70" width="100" height="40" as="geometry" />
        </mxCell>
        <mxCell id="E-FDAPXuGl_Y7a5FERmr-80" value="név" style="ellipse;whiteSpace=wrap;html=1;align=center;" parent="1" vertex="1">
          <mxGeometry x="320" y="70" width="100" height="40" as="geometry" />
        </mxCell>
        <mxCell id="E-FDAPXuGl_Y7a5FERmr-82" value="" style="endArrow=none;html=1;rounded=0;entryX=0.5;entryY=1;entryDx=0;entryDy=0;exitX=0.5;exitY=0;exitDx=0;exitDy=0;" parent="1" source="h7xfLtafOI-z9VBckkIk-6" target="E-FDAPXuGl_Y7a5FERmr-87" edge="1">
          <mxGeometry width="50" height="50" relative="1" as="geometry">
            <mxPoint x="545" y="170" as="sourcePoint" />
            <mxPoint x="570" y="110" as="targetPoint" />
          </mxGeometry>
        </mxCell>
        <mxCell id="E-FDAPXuGl_Y7a5FERmr-83" value="" style="endArrow=none;html=1;rounded=0;entryX=0.5;entryY=1;entryDx=0;entryDy=0;exitX=0.5;exitY=0;exitDx=0;exitDy=0;" parent="1" source="h7xfLtafOI-z9VBckkIk-6" target="E-FDAPXuGl_Y7a5FERmr-78" edge="1">
          <mxGeometry width="50" height="50" relative="1" as="geometry">
            <mxPoint x="235" y="180" as="sourcePoint" />
            <mxPoint x="285" y="130" as="targetPoint" />
          </mxGeometry>
        </mxCell>
        <mxCell id="E-FDAPXuGl_Y7a5FERmr-84" value="" style="endArrow=none;html=1;rounded=0;entryX=0.5;entryY=1;entryDx=0;entryDy=0;exitX=0.5;exitY=0;exitDx=0;exitDy=0;" parent="1" source="h7xfLtafOI-z9VBckkIk-6" target="E-FDAPXuGl_Y7a5FERmr-80" edge="1">
          <mxGeometry width="50" height="50" relative="1" as="geometry">
            <mxPoint x="290" y="195" as="sourcePoint" />
            <mxPoint x="340" y="145" as="targetPoint" />
          </mxGeometry>
        </mxCell>
        <mxCell id="E-FDAPXuGl_Y7a5FERmr-85" value="" style="endArrow=none;html=1;rounded=0;entryX=0.5;entryY=1;entryDx=0;entryDy=0;exitX=0.5;exitY=0;exitDx=0;exitDy=0;" parent="1" source="h7xfLtafOI-z9VBckkIk-6" target="E-FDAPXuGl_Y7a5FERmr-79" edge="1">
          <mxGeometry width="50" height="50" relative="1" as="geometry">
            <mxPoint x="430" y="120" as="sourcePoint" />
            <mxPoint x="380" y="120" as="targetPoint" />
          </mxGeometry>
        </mxCell>
        <mxCell id="E-FDAPXuGl_Y7a5FERmr-87" value="díjazás" style="ellipse;shape=doubleEllipse;margin=3;whiteSpace=wrap;html=1;align=center;" parent="1" vertex="1">
          <mxGeometry x="520" y="70" width="100" height="40" as="geometry" />
        </mxCell>
        <mxCell id="_7S4jgIZKsvz7IWpcm-z-1" value="játékidő/meccs" style="ellipse;whiteSpace=wrap;html=1;align=center;dashed=1;" parent="1" vertex="1">
          <mxGeometry x="100" y="520" width="90" height="40" as="geometry" />
        </mxCell>
        <mxCell id="_7S4jgIZKsvz7IWpcm-z-6" value="" style="endArrow=none;html=1;rounded=0;entryX=0.5;entryY=1;entryDx=0;entryDy=0;exitX=0.5;exitY=0;exitDx=0;exitDy=0;" parent="1" source="E-FDAPXuGl_Y7a5FERmr-9" target="IwBJExjEMi3g7pP4LpQf-2" edge="1">
          <mxGeometry width="50" height="50" relative="1" as="geometry">
            <mxPoint x="820" y="160" as="sourcePoint" />
            <mxPoint x="830" y="110" as="targetPoint" />
          </mxGeometry>
        </mxCell>
        <mxCell id="_7S4jgIZKsvz7IWpcm-z-7" value="" style="endArrow=none;html=1;rounded=0;entryX=0.5;entryY=0;entryDx=0;entryDy=0;exitX=0.5;exitY=1;exitDx=0;exitDy=0;" parent="1" source="IwBJExjEMi3g7pP4LpQf-1" target="E-FDAPXuGl_Y7a5FERmr-9" edge="1">
          <mxGeometry width="50" height="50" relative="1" as="geometry">
            <mxPoint x="730" y="110" as="sourcePoint" />
            <mxPoint x="840" y="120" as="targetPoint" />
          </mxGeometry>
        </mxCell>
        <mxCell id="IwBJExjEMi3g7pP4LpQf-1" value="&lt;span style=&quot;border-bottom: 1px dotted&quot;&gt;bajnokságID&lt;/span&gt;" style="ellipse;whiteSpace=wrap;html=1;align=center;" parent="1" vertex="1">
          <mxGeometry x="680" y="70" width="100" height="40" as="geometry" />
        </mxCell>
        <mxCell id="IwBJExjEMi3g7pP4LpQf-2" value="&lt;span style=&quot;border-bottom: 1px dotted&quot;&gt;klubID&lt;/span&gt;" style="ellipse;whiteSpace=wrap;html=1;align=center;" parent="1" vertex="1">
          <mxGeometry x="780" y="70" width="100" height="40" as="geometry" />
        </mxCell>
      </root>
    </mxGraphModel>
  </diagram>
</mxfile>
